<svg width="107" height="34" viewBox="0 0 107 34" fill="none" xmlns="http://www.w3.org/2000/svg">
<g clip-path="url(#clip0_3147_1747)">
<path d="M5.5514 0.0483398V1.00416C5.5514 8.33209 5.58358 15.6536 5.53531 22.9815C5.516 25.8554 7.06075 27.7188 9.24594 28.2015C11.798 28.7679 14.1698 27.7284 15.322 25.2375C16.532 22.6178 17.623 19.9467 18.6786 17.2595C19.9723 13.9704 22.3023 12.1682 25.8392 11.8335C28.166 11.6115 30.3962 11.8882 32.3979 13.0693C34.9951 14.6044 36.2309 18.1123 34.139 20.6418C33.6627 21.2147 32.9837 21.6202 32.3593 22.1383C32.8388 22.4859 33.3698 22.856 33.8912 23.2454C36.2759 25.0219 36.247 28.7743 34.2774 30.8244C31.9603 33.2348 29.0284 33.7465 25.8649 33.6049C23.1745 33.4826 21.0665 32.279 19.3834 30.2258C18.9618 29.7108 18.9425 29.2893 19.274 28.7164C19.9949 27.4613 20.6482 26.1611 21.2886 24.9511C22.1125 25.8425 22.8977 26.8595 23.8535 27.6866C25.3886 29.0125 27.3807 29.2474 28.7871 28.047C29.936 27.0687 30.1902 24.7194 28.1209 24.3267C27.474 24.2044 26.8079 24.1304 26.1513 24.1175C25.0185 24.095 25.0153 24.1175 25.0121 23.0073C25.0121 22.3668 25.0217 21.7232 25.0185 21.0827C25.0185 20.6418 25.2116 20.5067 25.659 20.5002C26.2865 20.4874 26.9334 20.4198 27.5416 20.2621C28.4395 20.0304 28.993 19.2451 28.9834 18.3826C28.977 17.6811 28.4202 17.0986 27.5094 16.8379C26.132 16.4453 24.5969 16.899 23.7441 18.3054C22.695 20.0336 21.7906 21.8744 21.0086 23.7442C19.8275 26.5731 18.5048 29.2699 16.281 31.4551C13.9156 33.7787 9.07537 34.7345 5.87322 32.9645C2.14328 30.9016 0.167286 27.7477 0.128667 23.4932C0.0739571 17.237 0.109358 10.9807 0.135104 4.72444C0.135104 4.38331 0.321761 3.92954 0.57922 3.72035C2.01455 2.55213 3.49494 1.44184 4.9689 0.318672C5.10728 0.21247 5.29072 0.167415 5.54818 0.0483398H5.5514Z" fill="white"/>
<path d="M16.4067 20.9829C14.376 16.2585 9.87367 14.865 6.15661 19.0712V17.9256C6.15661 16.8861 6.21454 15.8401 6.14052 14.8039C6.0665 13.7547 6.61038 13.1272 7.42459 12.7088C9.8608 11.4569 12.3582 11.5695 14.8394 12.5543C16.381 13.1658 17.5041 14.26 18.2089 15.7629C18.3151 15.985 18.402 16.3003 18.3248 16.5095C17.8066 17.9288 17.2499 19.3319 16.6931 20.7286C16.6513 20.8316 16.5097 20.8928 16.4035 20.9797L16.4067 20.9829Z" fill="white"/>
<path d="M18.5306 12.7346C16.7927 12.7281 15.5859 11.5117 15.5923 9.77058C15.5987 8.03917 16.8152 6.80659 18.5273 6.79693C20.2942 6.78728 21.5107 8.01986 21.501 9.80598C21.4913 11.5503 20.2845 12.741 18.5306 12.7346Z" fill="white"/>
<path d="M45.6862 22.6725C45.6862 22.7947 45.6798 22.8977 45.6701 22.9846C45.6605 23.0715 45.6444 23.1391 45.6219 23.1906C45.5993 23.2421 45.5736 23.2807 45.5446 23.3065C45.5157 23.3322 45.477 23.3451 45.4416 23.3451H43.4045V29.9006C43.4045 29.9425 43.3916 29.9811 43.3627 30.0133C43.3369 30.0454 43.2919 30.0744 43.2275 30.0937C43.1631 30.113 43.0795 30.1323 42.9733 30.1452C42.8671 30.1581 42.7319 30.1645 42.5742 30.1645C42.4165 30.1645 42.2813 30.1581 42.1751 30.1452C42.0689 30.1323 41.982 30.1162 41.9209 30.0937C41.8597 30.0712 41.8115 30.0454 41.7857 30.0133C41.76 29.9811 41.7439 29.9425 41.7439 29.9006V23.3451H39.7067C39.6649 23.3451 39.6295 23.3322 39.6005 23.3065C39.5716 23.2807 39.5458 23.2421 39.5265 23.1906C39.504 23.1391 39.4911 23.0683 39.4782 22.9846C39.4686 22.8977 39.4622 22.7947 39.4622 22.6725C39.4622 22.5502 39.4686 22.4407 39.4782 22.3506C39.4879 22.2637 39.504 22.1929 39.5265 22.1414C39.5458 22.09 39.5716 22.0513 39.6005 22.0288C39.6295 22.0063 39.6649 21.9934 39.7067 21.9934H45.4384C45.477 21.9934 45.5092 22.0063 45.5414 22.0288C45.5736 22.0513 45.5993 22.09 45.6186 22.1414C45.638 22.1929 45.654 22.2637 45.6669 22.3506C45.6766 22.4375 45.683 22.5469 45.683 22.6725H45.6862Z" fill="white"/>
<path d="M50.5425 26.9465C50.5425 27.1396 50.5007 27.2812 50.4138 27.3745C50.3269 27.4678 50.2111 27.5129 50.0598 27.5129H46.6485C46.6485 27.751 46.6774 27.9699 46.7321 28.163C46.7869 28.3561 46.8802 28.5234 47.0025 28.6586C47.1248 28.7937 47.2857 28.8999 47.4788 28.9707C47.6719 29.0415 47.9068 29.0769 48.1804 29.0769C48.4539 29.0769 48.6985 29.0576 48.9109 29.0158C49.1201 28.9772 49.3003 28.9321 49.4548 28.8838C49.6092 28.8356 49.7348 28.7905 49.8345 28.7519C49.9343 28.7133 50.018 28.6907 50.0791 28.6907C50.1177 28.6907 50.1467 28.6972 50.1724 28.7133C50.1982 28.7294 50.2175 28.7551 50.2368 28.7905C50.2529 28.8291 50.2658 28.8806 50.2722 28.9514C50.2786 29.0222 50.2819 29.1091 50.2819 29.2121C50.2819 29.3054 50.2819 29.3827 50.2754 29.447C50.2722 29.5114 50.2658 29.5661 50.2561 29.6144C50.2465 29.6594 50.2368 29.6981 50.2175 29.7302C50.2014 29.7624 50.1789 29.7914 50.1499 29.8204C50.1242 29.8493 50.0501 29.8879 49.9279 29.9394C49.8056 29.9909 49.6511 30.0392 49.4612 30.0875C49.2713 30.1357 49.0557 30.1776 48.8143 30.213C48.573 30.2484 48.3123 30.2677 48.0355 30.2677C47.5367 30.2677 47.099 30.2033 46.7257 30.0778C46.3492 29.9523 46.037 29.7624 45.786 29.505C45.535 29.2475 45.3483 28.9257 45.2228 28.5363C45.1005 28.1469 45.0361 27.6899 45.0361 27.1653C45.0361 26.6407 45.1005 26.2159 45.2324 25.8169C45.3612 25.4178 45.551 25.0767 45.7989 24.7999C46.0467 24.5199 46.346 24.3075 46.7 24.1627C47.054 24.0146 47.453 23.9438 47.8971 23.9438C48.367 23.9438 48.7661 24.0114 49.1008 24.1498C49.4355 24.2882 49.7058 24.4813 49.9214 24.7259C50.137 24.9705 50.2915 25.2601 50.3913 25.598C50.491 25.9359 50.5425 26.2964 50.5425 26.6922V26.9432V26.9465ZM49.0074 26.4927C49.0203 26.0486 48.9302 25.701 48.7403 25.4468C48.5504 25.1925 48.2544 25.067 47.8585 25.067C47.659 25.067 47.482 25.1056 47.334 25.1797C47.1859 25.2537 47.0604 25.3567 46.9639 25.4854C46.8641 25.6141 46.7901 25.7654 46.7386 25.9392C46.6871 26.1129 46.6549 26.2996 46.6485 26.4959H49.0107L49.0074 26.4927Z" fill="white"/>
<path d="M56.0103 29.0188C56.0103 29.1283 56.0103 29.2184 56.0006 29.2924C55.9909 29.3664 55.9845 29.4275 55.9749 29.479C55.9652 29.5305 55.9523 29.5692 55.9362 29.6013C55.9201 29.6335 55.888 29.6721 55.8397 29.7204C55.7914 29.7687 55.7045 29.8266 55.5822 29.8974C55.4599 29.9682 55.3216 30.0294 55.1671 30.0841C55.0126 30.1388 54.842 30.1838 54.6618 30.216C54.4816 30.2482 54.2917 30.2675 54.0986 30.2675C53.6674 30.2675 53.2844 30.1999 52.9529 30.068C52.6215 29.936 52.3415 29.7365 52.113 29.4726C51.8845 29.2087 51.7171 28.8901 51.6013 28.5136C51.4854 28.137 51.4275 27.7058 51.4275 27.2198C51.4275 26.6566 51.4983 26.1739 51.6367 25.7652C51.7751 25.3565 51.9714 25.0186 52.2256 24.7514C52.4799 24.4843 52.7759 24.2848 53.1171 24.1529C53.4582 24.0209 53.838 23.9565 54.2499 23.9565C54.4172 23.9565 54.5814 23.9726 54.7423 24.0016C54.9032 24.0306 55.0544 24.0692 55.196 24.1207C55.3376 24.1722 55.4632 24.2269 55.5726 24.2912C55.682 24.3556 55.7625 24.4071 55.8075 24.4554C55.8526 24.5036 55.8848 24.539 55.9041 24.5712C55.9234 24.6034 55.9362 24.642 55.9491 24.6935C55.962 24.745 55.9684 24.8062 55.9749 24.8802C55.9813 24.9542 55.9845 25.0411 55.9845 25.1473C55.9845 25.3887 55.962 25.5624 55.9201 25.659C55.8783 25.7555 55.8236 25.807 55.756 25.807C55.6852 25.807 55.608 25.7781 55.5307 25.7201C55.4535 25.6622 55.357 25.5978 55.2475 25.5238C55.1381 25.4498 55.0094 25.3887 54.8581 25.3275C54.7069 25.2664 54.5267 25.2406 54.3175 25.2406C53.9055 25.2406 53.5934 25.3983 53.3745 25.7137C53.1557 26.0291 53.0463 26.4925 53.0463 27.1072C53.0463 27.4097 53.072 27.6736 53.1267 27.9053C53.1814 28.137 53.2619 28.3301 53.3681 28.4846C53.4743 28.6391 53.6095 28.7549 53.7704 28.8322C53.9313 28.9094 54.1179 28.948 54.3336 28.948C54.5492 28.948 54.7391 28.9158 54.8968 28.8515C55.0544 28.7871 55.1928 28.7131 55.3087 28.6359C55.4245 28.5586 55.5243 28.4846 55.6048 28.4202C55.6852 28.3559 55.7528 28.3237 55.8043 28.3237C55.8429 28.3237 55.8719 28.3333 55.8976 28.3559C55.9234 28.3784 55.9427 28.417 55.9588 28.4717C55.9749 28.5264 55.9845 28.6005 55.9942 28.6874C56.0038 28.7742 56.007 28.8869 56.007 29.0253L56.0103 29.0188Z" fill="white"/>
<path d="M62.4338 29.9134C62.4338 29.9553 62.4209 29.9907 62.3951 30.0229C62.3694 30.055 62.3276 30.0808 62.2696 30.1001C62.2117 30.1194 62.1312 30.1355 62.0283 30.1484C61.9253 30.1612 61.7998 30.1645 61.6485 30.1645C61.4973 30.1645 61.3653 30.158 61.2623 30.1484C61.1593 30.1387 61.0789 30.1226 61.021 30.1001C60.963 30.0776 60.9212 30.0518 60.8954 30.0229C60.8697 29.9939 60.8568 29.9553 60.8568 29.9134V26.7145C60.8568 26.441 60.8375 26.2285 60.7957 26.0741C60.7538 25.9196 60.6991 25.7844 60.6219 25.675C60.5447 25.5656 60.4481 25.4787 60.329 25.4176C60.21 25.3564 60.0716 25.3274 59.9107 25.3274C59.7111 25.3274 59.5052 25.4015 59.3024 25.5463C59.0997 25.6911 58.884 25.9067 58.662 26.1867V29.9134C58.662 29.9553 58.6491 29.9907 58.6234 30.0229C58.5976 30.055 58.5558 30.0808 58.4946 30.1001C58.4335 30.1194 58.353 30.1355 58.2533 30.1484C58.1535 30.1612 58.0248 30.1645 57.8703 30.1645C57.7158 30.1645 57.5871 30.158 57.4873 30.1484C57.3876 30.1387 57.3071 30.1226 57.246 30.1001C57.1848 30.0776 57.143 30.0518 57.1172 30.0229C57.0915 29.9939 57.0786 29.9553 57.0786 29.9134V21.649C57.0786 21.6072 57.0915 21.5685 57.1172 21.5364C57.143 21.5042 57.1848 21.4752 57.246 21.4527C57.3071 21.4302 57.3876 21.4108 57.4873 21.398C57.5871 21.3851 57.7158 21.3787 57.8703 21.3787C58.0248 21.3787 58.1535 21.3851 58.2533 21.398C58.353 21.4108 58.4335 21.4269 58.4946 21.4527C58.5558 21.4784 58.5976 21.5042 58.6234 21.5364C58.6491 21.5685 58.662 21.6072 58.662 21.649V24.7482C58.9355 24.481 59.2123 24.2783 59.4955 24.1463C59.7787 24.0144 60.0716 23.9468 60.3773 23.9468C60.7571 23.9468 61.0789 24.0112 61.3428 24.1367C61.6067 24.2622 61.8159 24.4328 61.9768 24.6516C62.1377 24.8705 62.2535 25.1247 62.3243 25.4143C62.3951 25.704 62.4305 26.058 62.4305 26.4731V29.9102L62.4338 29.9134Z" fill="white"/>
<path d="M69.2629 29.9136C69.2629 29.9554 69.25 29.9908 69.2242 30.023C69.1985 30.0552 69.1567 30.0809 69.0987 30.1003C69.0408 30.1196 68.9604 30.1357 68.8574 30.1485C68.7544 30.1614 68.6289 30.1646 68.4776 30.1646C68.3264 30.1646 68.1944 30.1582 68.0914 30.1485C67.9884 30.1389 67.908 30.1228 67.8501 30.1003C67.7921 30.0777 67.7503 30.052 67.7245 30.023C67.6988 29.994 67.6859 29.9554 67.6859 29.9136V26.7147C67.6859 26.4411 67.6666 26.2287 67.6248 26.0742C67.5829 25.9198 67.5282 25.7846 67.451 25.6752C67.3738 25.5658 67.2772 25.4789 67.1581 25.4177C67.0391 25.3566 66.9007 25.3276 66.7398 25.3276C66.5402 25.3276 66.3343 25.4016 66.1315 25.5464C65.9288 25.6913 65.7131 25.9069 65.4911 26.1869V29.9136C65.4911 29.9554 65.4782 29.9908 65.4525 30.023C65.4267 30.0552 65.3849 30.0809 65.3237 30.1003C65.2626 30.1196 65.1821 30.1357 65.0824 30.1485C64.9826 30.1614 64.8539 30.1646 64.6994 30.1646C64.5449 30.1646 64.4162 30.1582 64.3164 30.1485C64.2167 30.1389 64.1362 30.1228 64.0751 30.1003C64.0139 30.0777 63.9721 30.052 63.9463 30.023C63.9206 29.994 63.9077 29.9554 63.9077 29.9136V24.3074C63.9077 24.2656 63.9174 24.2302 63.9399 24.198C63.9624 24.1658 63.9978 24.1401 64.0525 24.1208C64.1072 24.1015 64.178 24.0854 64.2617 24.0725C64.3454 24.0596 64.4548 24.0564 64.5868 24.0564C64.7187 24.0564 64.8313 24.0628 64.9215 24.0725C65.0116 24.0821 65.0792 24.0982 65.1242 24.1208C65.1693 24.1433 65.2079 24.169 65.2272 24.198C65.2465 24.227 65.2594 24.2656 65.2594 24.3074V24.9543C65.5683 24.6196 65.8837 24.3686 66.2055 24.2012C66.5274 24.0339 66.8588 23.9502 67.2096 23.9502C67.5894 23.9502 67.9112 24.0146 68.1751 24.1401C68.439 24.2656 68.6482 24.4361 68.8091 24.6518C68.97 24.8674 69.0859 25.1216 69.1567 25.4081C69.2275 25.6945 69.2629 26.0453 69.2629 26.4508V29.9136Z" fill="white"/>
<path d="M76.4074 27.0526C76.4074 27.5289 76.3431 27.9666 76.2175 28.3592C76.092 28.7519 75.9022 29.093 75.6447 29.3762C75.3872 29.6594 75.0686 29.8815 74.6824 30.0359C74.2963 30.1904 73.8457 30.2676 73.3308 30.2676C72.8159 30.2676 72.3975 30.2001 72.0306 30.0617C71.6637 29.9233 71.3548 29.7238 71.1134 29.4566C70.872 29.1895 70.6886 28.8677 70.5728 28.4815C70.4569 28.0953 70.3958 27.6544 70.3958 27.162C70.3958 26.6697 70.4601 26.2481 70.5888 25.8522C70.7176 25.4564 70.9075 25.1152 71.1649 24.8353C71.4224 24.5553 71.741 24.3332 72.1239 24.1787C72.5069 24.0243 72.9575 23.947 73.4724 23.947C73.9873 23.947 74.4121 24.0146 74.779 24.1498C75.1459 24.2849 75.4516 24.4845 75.693 24.7516C75.9343 25.0187 76.1146 25.3405 76.2304 25.7267C76.3463 26.1129 76.4074 26.5538 76.4074 27.0526ZM74.779 27.117C74.779 26.8402 74.7565 26.586 74.7114 26.3543C74.6664 26.1225 74.5923 25.9198 74.4894 25.7492C74.3864 25.5787 74.2448 25.4435 74.071 25.347C73.8972 25.2504 73.6784 25.2021 73.4145 25.2021C73.1795 25.2021 72.9736 25.244 72.7998 25.3309C72.626 25.4178 72.478 25.5433 72.3653 25.7074C72.2527 25.8715 72.1658 26.0711 72.1111 26.306C72.0564 26.5409 72.0274 26.8048 72.0274 27.1009C72.0274 27.3777 72.0499 27.6319 72.095 27.8636C72.14 28.0953 72.2141 28.2981 72.317 28.4686C72.42 28.6392 72.5584 28.7744 72.7354 28.8677C72.9124 28.961 73.128 29.0093 73.3887 29.0093C73.6269 29.0093 73.836 28.9675 74.0098 28.8806C74.1836 28.7937 74.3317 28.6714 74.4443 28.5073C74.5569 28.3431 74.6406 28.1468 74.6953 27.9119C74.75 27.677 74.7758 27.4131 74.7758 27.117H74.779Z" fill="white"/>
<path d="M79.1654 29.9134C79.1654 29.9553 79.1525 29.9907 79.1268 30.0229C79.101 30.055 79.0592 30.0808 78.9981 30.1001C78.9369 30.1194 78.8565 30.1355 78.7567 30.1484C78.6569 30.1612 78.5282 30.1645 78.3737 30.1645C78.2192 30.1645 78.0905 30.158 77.9907 30.1484C77.891 30.1387 77.8105 30.1226 77.7494 30.1001C77.6882 30.0776 77.6464 30.0518 77.6206 30.0229C77.5949 29.9939 77.582 29.9553 77.582 29.9134V21.649C77.582 21.6072 77.5949 21.5685 77.6206 21.5364C77.6464 21.5042 77.6882 21.4752 77.7494 21.4527C77.8105 21.4302 77.891 21.4108 77.9907 21.398C78.0905 21.3851 78.2192 21.3787 78.3737 21.3787C78.5282 21.3787 78.6569 21.3851 78.7567 21.398C78.8565 21.4108 78.9369 21.4269 78.9981 21.4527C79.0592 21.4784 79.101 21.5042 79.1268 21.5364C79.1525 21.5685 79.1654 21.6072 79.1654 21.649V29.9134Z" fill="white"/>
<path d="M86.3359 27.0526C86.3359 27.5289 86.2715 27.9666 86.146 28.3592C86.0205 28.7519 85.8306 29.093 85.5732 29.3762C85.3157 29.6594 84.9971 29.8815 84.6109 30.0359C84.2247 30.1904 83.7742 30.2676 83.2593 30.2676C82.7443 30.2676 82.326 30.2001 81.9591 30.0617C81.5922 29.9233 81.2833 29.7238 81.0419 29.4566C80.8005 29.1895 80.6171 28.8677 80.5012 28.4815C80.3854 28.0953 80.3242 27.6544 80.3242 27.162C80.3242 26.6697 80.3886 26.2481 80.5173 25.8522C80.646 25.4564 80.8359 25.1152 81.0934 24.8353C81.3508 24.5553 81.6694 24.3332 82.0524 24.1787C82.4354 24.0243 82.8859 23.947 83.4009 23.947C83.9158 23.947 84.3406 24.0146 84.7075 24.1498C85.0743 24.2849 85.3801 24.4845 85.6214 24.7516C85.8628 25.0187 86.043 25.3405 86.1589 25.7267C86.2747 26.1129 86.3359 26.5538 86.3359 27.0526ZM84.7075 27.117C84.7075 26.8402 84.6849 26.586 84.6399 26.3543C84.5948 26.1225 84.5208 25.9198 84.4178 25.7492C84.3148 25.5787 84.1732 25.4435 83.9995 25.347C83.8257 25.2504 83.6068 25.2021 83.3429 25.2021C83.108 25.2021 82.902 25.244 82.7282 25.3309C82.5545 25.4178 82.4064 25.5433 82.2938 25.7074C82.1811 25.8715 82.0943 26.0711 82.0395 26.306C81.9848 26.5409 81.9559 26.8048 81.9559 27.1009C81.9559 27.3777 81.9784 27.6319 82.0234 27.8636C82.0685 28.0953 82.1425 28.2981 82.2455 28.4686C82.3485 28.6392 82.4869 28.7744 82.6639 28.8677C82.8409 28.961 83.0565 29.0093 83.3172 29.0093C83.5553 29.0093 83.7645 28.9675 83.9383 28.8806C84.1121 28.7937 84.2601 28.6714 84.3728 28.5073C84.4854 28.3431 84.5691 28.1468 84.6238 27.9119C84.6785 27.677 84.7042 27.4131 84.7042 27.117H84.7075Z" fill="white"/>
<path d="M92.5632 24.6969C92.5632 24.8964 92.5406 25.0477 92.4956 25.1442C92.4505 25.2408 92.3926 25.2891 92.325 25.2891H91.6653C91.7586 25.3888 91.823 25.5047 91.8648 25.6302C91.9066 25.7557 91.926 25.8909 91.926 26.0293C91.926 26.3575 91.8712 26.6472 91.7618 26.9014C91.6524 27.1556 91.4979 27.3681 91.292 27.5418C91.086 27.7156 90.8446 27.8476 90.555 27.9377C90.2653 28.0278 89.95 28.0728 89.5959 28.0728C89.4157 28.0728 89.2452 28.0503 89.081 28.0053C88.9169 27.9602 88.7914 27.9087 88.7045 27.8508C88.653 27.9055 88.6079 27.9699 88.5693 28.0471C88.5307 28.1243 88.5082 28.208 88.5082 28.2981C88.5082 28.4204 88.5629 28.5202 88.6691 28.5974C88.7753 28.6747 88.9266 28.7165 89.1197 28.7262L90.4842 28.7776C90.8028 28.7905 91.086 28.8356 91.337 28.9128C91.588 28.99 91.7972 29.0995 91.9646 29.2411C92.1319 29.3827 92.2639 29.55 92.354 29.7463C92.4441 29.9426 92.4891 30.1679 92.4891 30.4189C92.4891 30.6957 92.428 30.9564 92.3057 31.201C92.1834 31.4456 92.0032 31.658 91.7586 31.8382C91.514 32.0184 91.2115 32.16 90.8446 32.2662C90.4777 32.3724 90.0497 32.4239 89.5605 32.4239C89.0714 32.4239 88.6755 32.3853 88.3376 32.3113C87.9997 32.2372 87.7229 32.131 87.5073 31.9959C87.2917 31.8607 87.134 31.6998 87.0375 31.5164C86.9409 31.3329 86.8894 31.127 86.8894 30.9049C86.8894 30.7665 86.9087 30.6346 86.9441 30.5091C86.9795 30.3835 87.031 30.2645 87.1018 30.1486C87.1726 30.0328 87.2563 29.9233 87.3561 29.8171C87.4558 29.7109 87.5717 29.6112 87.7004 29.5146C87.5202 29.4181 87.3818 29.2861 87.282 29.122C87.1823 28.9579 87.134 28.7744 87.134 28.5781C87.134 28.3303 87.1919 28.105 87.3046 27.9023C87.4172 27.6995 87.5652 27.5161 87.7455 27.352C87.5974 27.2039 87.4816 27.0301 87.3947 26.8242C87.3078 26.6182 87.2627 26.364 87.2627 26.0582C87.2627 25.73 87.3207 25.4403 87.4365 25.1829C87.5524 24.9254 87.7133 24.7066 87.916 24.5296C88.1188 24.3526 88.3666 24.2142 88.653 24.1208C88.9394 24.0275 89.2516 23.9792 89.5959 23.9792C89.7729 23.9792 89.9403 23.9889 90.1012 24.0114C90.2621 24.034 90.4134 24.0629 90.5518 24.0983H92.3314C92.4022 24.0983 92.4602 24.1434 92.5052 24.2367C92.5503 24.33 92.5728 24.4845 92.5728 24.7034L92.5632 24.6969ZM90.9025 30.4994C90.9025 30.3095 90.8285 30.1647 90.6773 30.0649C90.526 29.9652 90.32 29.9105 90.0561 29.9008L88.9298 29.8686C88.8203 29.9491 88.7335 30.0263 88.6691 30.0971C88.6047 30.1679 88.5532 30.2419 88.5114 30.3063C88.4696 30.3707 88.4438 30.4383 88.4342 30.5026C88.4245 30.567 88.4149 30.6313 88.4149 30.6989C88.4149 30.9081 88.5211 31.069 88.7335 31.1752C88.9459 31.2814 89.2419 31.3394 89.6281 31.3394C89.8663 31.3394 90.069 31.3136 90.2332 31.2686C90.3973 31.2235 90.5292 31.1559 90.629 31.0755C90.7288 30.995 90.7996 30.9081 90.8414 30.8084C90.8832 30.7086 90.9058 30.6056 90.9058 30.4962L90.9025 30.4994ZM90.5325 26.0228C90.5325 25.7203 90.4488 25.4854 90.2814 25.318C90.1141 25.1507 89.8759 25.067 89.5702 25.067C89.4157 25.067 89.2773 25.0928 89.1615 25.1442C89.0456 25.1957 88.9459 25.2665 88.8686 25.3567C88.7914 25.4468 88.7335 25.553 88.6948 25.672C88.6562 25.7911 88.6369 25.9166 88.6369 26.0454C88.6369 26.3318 88.7206 26.5538 88.8879 26.7212C89.0553 26.8885 89.287 26.969 89.5863 26.969C89.7472 26.969 89.8824 26.9432 90.0014 26.895C90.1205 26.8467 90.2171 26.7759 90.2943 26.689C90.3715 26.6021 90.4295 26.4991 90.4713 26.3833C90.5131 26.2674 90.5325 26.1483 90.5325 26.0228Z" fill="white"/>
<path d="M95.2374 22.4087C95.2374 22.7273 95.173 22.9462 95.0411 23.0685C94.9091 23.1908 94.671 23.2519 94.317 23.2519C93.963 23.2519 93.7216 23.194 93.5961 23.0749C93.4706 22.9558 93.4094 22.7467 93.4094 22.4409C93.4094 22.1352 93.4738 21.9003 93.6025 21.778C93.7312 21.6557 93.9726 21.5913 94.3298 21.5913C94.6871 21.5913 94.922 21.6525 95.0475 21.7715C95.173 21.8906 95.2374 22.103 95.2374 22.4087ZM95.1183 29.9137C95.1183 29.9555 95.1054 29.9909 95.0797 30.0231C95.0539 30.0553 95.0121 30.081 94.951 30.1003C94.8898 30.1196 94.8094 30.1357 94.7096 30.1486C94.6098 30.1615 94.4811 30.1647 94.3266 30.1647C94.1721 30.1647 94.0434 30.1583 93.9437 30.1486C93.8439 30.139 93.7634 30.1229 93.7023 30.1003C93.6411 30.0778 93.5993 30.0521 93.5736 30.0231C93.5478 29.9941 93.5349 29.9555 93.5349 29.9137V24.3204C93.5349 24.2785 93.5478 24.2431 93.5736 24.211C93.5993 24.1788 93.6411 24.153 93.7023 24.1305C93.7634 24.108 93.8439 24.0887 93.9437 24.0758C94.0434 24.0629 94.1721 24.0565 94.3266 24.0565C94.4811 24.0565 94.6098 24.0629 94.7096 24.0758C94.8094 24.0887 94.8898 24.1048 94.951 24.1305C95.0121 24.1562 95.0539 24.182 95.0797 24.211C95.1054 24.2399 95.1183 24.2785 95.1183 24.3204V29.9137Z" fill="white"/>
<path d="M101.799 26.9465C101.799 27.1396 101.758 27.2812 101.671 27.3745C101.584 27.4678 101.468 27.5129 101.317 27.5129H97.9021C97.9021 27.751 97.9311 27.9699 97.9858 28.163C98.0405 28.3561 98.1338 28.5234 98.2561 28.6586C98.3784 28.7937 98.5393 28.8999 98.7324 28.9707C98.9255 29.0415 99.1605 29.0769 99.434 29.0769C99.7076 29.0769 99.9521 29.0576 100.165 29.0158C100.377 28.974 100.554 28.9321 100.708 28.8838C100.863 28.8356 100.988 28.7905 101.088 28.7519C101.188 28.7133 101.272 28.6907 101.333 28.6907C101.371 28.6907 101.4 28.6972 101.426 28.7133C101.452 28.7294 101.471 28.7551 101.49 28.7905C101.51 28.8259 101.519 28.8806 101.526 28.9514C101.532 29.0222 101.536 29.1091 101.536 29.2121C101.536 29.3054 101.536 29.3827 101.529 29.447C101.523 29.5114 101.519 29.5661 101.51 29.6144C101.5 29.6627 101.487 29.6981 101.471 29.7302C101.455 29.7624 101.433 29.7914 101.404 29.8204C101.375 29.8493 101.301 29.8879 101.182 29.9394C101.062 29.9909 100.905 30.0392 100.715 30.0875C100.525 30.1357 100.309 30.1776 100.068 30.213C99.8266 30.2484 99.566 30.2677 99.2892 30.2677C98.7904 30.2677 98.3527 30.2033 97.9794 30.0778C97.6061 29.9523 97.2907 29.7624 97.0396 29.505C96.7886 29.2475 96.602 28.9257 96.4764 28.5363C96.3509 28.1469 96.2898 27.6899 96.2898 27.1653C96.2898 26.6407 96.3542 26.2159 96.4861 25.8169C96.6181 25.4178 96.8047 25.0767 97.0525 24.7999C97.3003 24.5231 97.5996 24.3075 97.9536 24.1627C98.3076 24.0179 98.7067 23.9438 99.1508 23.9438C99.6207 23.9438 100.023 24.0114 100.354 24.1498C100.686 24.2882 100.959 24.4813 101.175 24.7259C101.391 24.9705 101.545 25.2601 101.645 25.598C101.745 25.9359 101.796 26.2964 101.796 26.6922V26.9432L101.799 26.9465ZM100.264 26.4927C100.277 26.0486 100.187 25.701 99.9972 25.4468C99.8073 25.1925 99.5113 25.067 99.1154 25.067C98.9159 25.067 98.7389 25.1056 98.5908 25.1797C98.4428 25.2537 98.3173 25.3567 98.2207 25.4854C98.1242 25.6141 98.0469 25.7654 97.9955 25.9392C97.944 26.1129 97.9118 26.2996 97.9053 26.4959H100.268L100.264 26.4927Z" fill="white"/>
<path d="M106.971 28.3303C106.971 28.6489 106.91 28.9289 106.791 29.1734C106.672 29.418 106.501 29.6208 106.286 29.7817C106.07 29.9426 105.809 30.0681 105.513 30.1486C105.217 30.229 104.892 30.2709 104.545 30.2709C104.335 30.2709 104.136 30.2548 103.943 30.2226C103.75 30.1904 103.582 30.1518 103.431 30.1035C103.28 30.0552 103.154 30.007 103.055 29.9555C102.955 29.904 102.881 29.8589 102.836 29.8139C102.791 29.7688 102.755 29.7012 102.73 29.6079C102.704 29.5146 102.691 29.373 102.691 29.1895C102.691 29.0672 102.694 28.9707 102.704 28.8967C102.713 28.8227 102.726 28.7647 102.742 28.7197C102.759 28.6746 102.781 28.6456 102.807 28.6328C102.833 28.6199 102.865 28.6102 102.9 28.6102C102.945 28.6102 103.013 28.636 103.103 28.6875C103.193 28.739 103.306 28.7969 103.438 28.8613C103.569 28.9256 103.727 28.9836 103.907 29.0383C104.088 29.093 104.287 29.1187 104.512 29.1187C104.654 29.1187 104.783 29.1026 104.892 29.0737C105.002 29.0447 105.098 29.0029 105.182 28.9482C105.266 28.8935 105.327 28.8259 105.368 28.7422C105.41 28.6585 105.433 28.562 105.433 28.4526C105.433 28.327 105.394 28.2176 105.317 28.1275C105.24 28.0374 105.137 27.9602 105.008 27.8926C104.879 27.825 104.735 27.7639 104.574 27.7027C104.413 27.6416 104.245 27.5804 104.078 27.5064C103.911 27.4324 103.743 27.3519 103.582 27.2618C103.421 27.1717 103.277 27.0558 103.148 26.9239C103.019 26.7919 102.916 26.6278 102.839 26.4412C102.762 26.2545 102.723 26.026 102.723 25.7621C102.723 25.4982 102.775 25.2472 102.881 25.0251C102.987 24.8031 103.135 24.61 103.335 24.4491C103.534 24.2882 103.772 24.1659 104.055 24.079C104.339 23.9921 104.657 23.947 105.008 23.947C105.185 23.947 105.356 23.9599 105.52 23.9856C105.684 24.0114 105.835 24.0436 105.97 24.079C106.105 24.1144 106.218 24.1562 106.308 24.2013C106.398 24.2463 106.466 24.2817 106.508 24.3139C106.55 24.3461 106.575 24.3783 106.591 24.4072C106.608 24.4362 106.62 24.4748 106.63 24.5199C106.64 24.5649 106.646 24.6196 106.653 24.684C106.659 24.7484 106.662 24.8288 106.662 24.9254C106.662 25.038 106.662 25.1313 106.653 25.2021C106.643 25.2729 106.636 25.3309 106.62 25.3727C106.604 25.4145 106.585 25.4435 106.559 25.4564C106.533 25.4692 106.505 25.4789 106.472 25.4789C106.434 25.4789 106.376 25.4564 106.295 25.4113C106.215 25.3663 106.115 25.3212 105.996 25.2697C105.877 25.2182 105.739 25.1732 105.581 25.1281C105.423 25.0831 105.246 25.0605 105.043 25.0605C104.902 25.0605 104.776 25.0766 104.673 25.1056C104.57 25.1346 104.483 25.1764 104.416 25.2311C104.348 25.2858 104.3 25.3502 104.265 25.4242C104.229 25.4982 104.213 25.5755 104.213 25.6591C104.213 25.7879 104.252 25.8973 104.332 25.9874C104.413 26.0775 104.516 26.1515 104.648 26.2191C104.78 26.2867 104.924 26.3478 105.092 26.409C105.259 26.4701 105.426 26.5313 105.594 26.6021C105.761 26.6729 105.932 26.7533 106.096 26.8434C106.26 26.9335 106.408 27.0494 106.54 27.1813C106.672 27.3133 106.775 27.4774 106.855 27.6609C106.936 27.8443 106.974 28.0696 106.974 28.3238L106.971 28.3303Z" fill="white"/>
</g>
<defs>
<clipPath id="clip0_3147_1747">
<rect width="107" height="33.9267" fill="white"/>
</clipPath>
</defs>
</svg>
